<svg width="7" height="15" viewBox="0 0 7 15" fill="none" xmlns="http://www.w3.org/2000/svg">
<path d="M1.16125 6.77109e-05C1.31065 -0.000440598 1.45826 0.0325317 1.59324 0.0965605C1.72821 0.160589 1.84713 0.254048 1.94125 0.370069L6.77125 6.37007C6.91833 6.549 6.99874 6.77344 6.99874 7.00507C6.99874 7.23669 6.91833 7.46113 6.77125 7.64007L1.77125 13.6401C1.60151 13.8443 1.3576 13.9727 1.09318 13.9971C0.828749 14.0215 0.565468 13.9398 0.361251 13.7701C0.157035 13.6003 0.0286107 13.3564 0.00423098 13.092C-0.0201488 12.8276 0.0615125 12.5643 0.231251 12.3601L4.70125 7.00007L0.381252 1.64007C0.258969 1.49328 0.181292 1.31454 0.157412 1.12499C0.133533 0.935445 0.164449 0.74302 0.246505 0.570493C0.328561 0.397965 0.458321 0.252554 0.620431 0.151464C0.782542 0.0503731 0.970218 -0.00216389 1.16125 6.77109e-05Z" fill="#01AAFF"/>
</svg>
