<?xml version="1.0" encoding="utf-8"?>
<svg version="1.1" xmlns="http://www.w3.org/2000/svg" x="0px" y="0px"
     viewBox="0 0 200 22" style="enable-background:new 0 0 200 22;" xml:space="preserve">
<style type="text/css">
	.st0{fill-rule:evenodd;clip-rule:evenodd;fill:#F7E300;}
	.st1{fill:#FFFFFF;}
</style>
<g>
	<path class="st0" d="M3.7,0l16.1,1.5c1.2,0,2.2,1,2.2,2.2L20.5,19c0,1.2-1,2.2-2.2,2.2H2.2C1,21.2,0,20.2,0,19L1.5,2.2
		C1.5,1,2.5,0,3.7,0z"/>
	<g>
		<path class="st1" d="M26.1,0h17.5v5.5H31.9v1.8H37c7.5,0,9.3,2.3,9.3,6.8c0,4.4-1.7,7.7-9.7,7.7H26.1V0z M36.9,16.7
			c2.5,0,3.3-0.3,3.3-2.4c0-2.2-0.8-2.4-3.4-2.4h-5v4.8H36.9z"/>
		<path class="st1" d="M48,13.3c0-4.6,1.6-8.7,9.1-8.7c7.5,0,8,4.8,7.8,10.7H53.6c0.3,1.4,1.2,2.1,3.5,2.1c2.5,0,4-0.6,5.2-1.5
			l2.9,3.7c-2.4,1.8-4.7,2.4-8.1,2.4C49.6,22,48,18,48,13.3z M53.5,11.8h6c-0.1-1.4-0.3-2.5-2.7-2.5C54.5,9.3,53.8,10.2,53.5,11.8z"
			/>
		<path class="st1" d="M66.5,13.3c0-4.6,1.5-8.7,9.2-8.7c3,0,5.5,0.9,7.2,2.9l-4.1,3.8c-0.6-0.7-1.4-1.4-3.1-1.4
			c-2.8,0-3.3,1.5-3.3,3.6c0,2.1,0.5,3.6,3.3,3.6c1.4,0,2.3-0.4,3.4-1.5l3.7,3.5c-2.1,2-3.7,2.9-7.4,2.9
			C68.1,21.9,66.5,18,66.5,13.3z"/>
		<path class="st1" d="M84.8,4.9h17v16.8H96v-12h-5.5v12h-5.7V4.9z"/>
		<path class="st1" d="M104.6,16.9h0.5c1.2,0,1.6-0.3,1.6-1.5V4.9h17v16.8h-5.8v-12h-5.5v6.4c0,4.5-2,5.6-5.2,5.6
			c-1.1,0-2.2-0.1-2.6-0.1V16.9z"/>
		<path class="st1" d="M125.8,16.6c0-4.7,3.4-5.6,10.6-5.6h0.5c0-0.9-0.2-1.4-2.7-1.4c-2,0-3.8,0.7-4.8,1.3l-2.9-4.2
			c1.3-0.8,4.4-2.2,8.3-2.2c6.3,0,7.6,1.9,7.6,6.6v4.5c0,1.1,0.1,1.3,1.3,1.3v4.7c-0.4,0.1-1.1,0.1-2.5,0.1c-1.7,0-2.7-0.3-3.4-1.5
			c-0.8,1-2.7,1.7-5.6,1.7C126.9,21.9,125.8,19.6,125.8,16.6z M136.8,15v-0.6h-0.1c-5.2,0-5.4,0.5-5.4,1.7c0,0.8,0.6,1.1,2.2,1.1
			C135.8,17.3,136.8,16.6,136.8,15z"/>
		<path class="st1" d="M150.8,9.8h-5.6V4.9h16.9v4.9h-5.6v11.8h-5.8V9.8z"/>
		<path class="st1" d="M170.1,10.4h0.8l3.7-5.5h6.6l-5.7,7.5l6.1,9.2H175l-4-6.6h-0.8v6.6h-5.7V4.9h5.7V10.4z"/>
		<path class="st1" d="M181.9,16.6c0-4.7,3.4-5.6,10.6-5.6h0.5c0-0.9-0.2-1.4-2.7-1.4c-2,0-3.8,0.7-4.8,1.3l-2.9-4.2
			c1.3-0.8,4.4-2.2,8.3-2.2c6.3,0,7.6,1.9,7.6,6.6v4.5c0,1.1,0.1,1.3,1.3,1.3v4.7c-0.4,0.1-1.1,0.1-2.5,0.1c-1.7,0-2.7-0.3-3.4-1.5
			c-0.8,1-2.7,1.7-5.6,1.7C183,21.9,181.9,19.6,181.9,16.6z M193,15v-0.6h-0.1c-5.2,0-5.4,0.5-5.4,1.7c0,0.8,0.6,1.1,2.2,1.1
			C191.9,17.3,193,16.6,193,15z"/>
	</g>
</g>
</svg>
